<?xml version="1.0" standalone="no"?>
<!DOCTYPE svg PUBLIC "-//W3C//DTD SVG 20010904//EN"
 "http://www.w3.org/TR/2001/REC-SVG-20010904/DTD/svg10.dtd">
<svg version="1.0" xmlns="http://www.w3.org/2000/svg"
 width="300.000000pt" height="300.000000pt" viewBox="0 0 300.000000 300.000000"
 preserveAspectRatio="xMidYMid meet">

<g transform="translate(0.000000,300.000000) scale(0.100000,-0.100000)"
fill="#000000" stroke="none">
<path d="M931 2948 c-14 -7 -33 -27 -43 -43 -42 -73 -62 -293 -37 -417 11 -52
10 -57 -20 -116 -17 -34 -31 -70 -31 -81 0 -11 -4 -22 -10 -26 -5 -3 -7 -12
-4 -19 3 -8 1 -17 -5 -21 -14 -8 -14 -142 -1 -150 6 -4 9 -12 8 -18 -5 -23 55
-117 91 -141 20 -14 52 -27 71 -28 25 -2 40 -10 51 -29 10 -14 33 -36 53 -48
20 -13 36 -24 36 -26 0 -2 -9 -19 -19 -37 -10 -18 -22 -49 -26 -68 l-8 -35
-17 62 c-30 110 -71 147 -133 118 -62 -28 -122 -65 -139 -85 -15 -18 -19 -19
-51 -5 -74 31 -252 27 -293 -6 -7 -6 -25 2 -50 22 -70 56 -170 92 -200 71 -62
-43 -95 -254 -53 -345 9 -19 8 -30 -4 -48 -8 -13 -22 -55 -32 -93 -18 -75 -14
-147 12 -204 20 -42 74 -84 113 -87 16 -1 45 -14 65 -29 160 -122 436 -124
594 -5 29 22 56 37 61 34 12 -8 72 18 89 38 18 23 26 21 39 -8 14 -30 68 -65
101 -65 13 0 39 -14 59 -31 63 -56 190 -98 297 -100 98 -2 241 44 302 96 26
22 52 35 69 35 20 0 40 13 71 46 l44 45 30 -25 c28 -24 37 -27 80 -31 8 0 33
-15 55 -33 48 -39 121 -68 215 -83 128 -22 295 17 376 86 22 19 43 32 46 29
15 -15 78 20 111 62 65 85 69 199 10 300 -23 39 -24 47 -14 81 7 21 16 46 21
55 12 23 12 105 0 112 -4 3 -11 24 -15 47 -14 88 -60 136 -119 125 -32 -6 -92
-41 -148 -87 -25 -20 -27 -20 -59 -4 -53 27 -174 31 -242 8 l-58 -20 -52 40
c-134 101 -201 89 -238 -45 l-17 -63 -13 40 c-7 22 -18 50 -26 61 -12 20 -10
24 25 48 20 14 47 40 60 56 16 22 30 30 52 30 73 0 148 71 168 160 24 106 2
260 -49 348 -13 21 -19 44 -15 56 40 140 13 401 -49 473 -48 55 -174 23 -283
-72 -57 -50 -66 -52 -108 -27 -46 28 -118 43 -208 43 -106 0 -170 -13 -229
-46 -27 -15 -48 -22 -48 -16 0 15 -103 91 -162 118 -65 30 -116 37 -147 21z
m104 -117 c17 -10 52 -38 78 -61 l48 -43 -33 -34 -32 -33 -38 41 c-20 22 -42
38 -48 34 -12 -8 -13 -69 -1 -112 8 -27 5 -37 -21 -72 -16 -23 -33 -41 -38
-41 -14 0 -21 123 -11 200 18 138 35 159 96 121z m1023 -13 c19 -39 32 -168
25 -242 -3 -36 -9 -66 -12 -66 -10 0 -64 72 -64 86 0 7 -4 11 -8 9 -3 -3 -12
2 -19 10 -11 13 -10 18 6 30 10 8 22 15 27 15 10 0 9 68 -1 74 -5 3 -26 -13
-47 -34 l-39 -40 -33 32 c-31 30 -32 32 -15 51 38 43 128 107 147 105 11 -2
26 -15 33 -30z m-412 -64 c66 -18 154 -77 224 -150 57 -61 56 -60 -25 1 -223
169 -457 162 -695 -20 l-75 -57 88 87 c152 150 295 191 483 139z m-256 -202
c53 -55 70 -104 70 -204 l0 -63 50 0 50 0 0 66 c0 148 68 249 167 249 30 0 49
-6 63 -20 25 -25 18 -42 -25 -63 -42 -20 -45 -32 -8 -35 45 -4 143 -61 143
-84 0 -4 -14 -8 -31 -8 -17 0 -39 -5 -51 -11 -20 -11 -20 -11 4 -36 12 -14 57
-42 98 -63 81 -41 121 -77 169 -154 37 -59 38 -79 10 -126 l-21 -34 -19 37
c-19 36 -39 49 -39 25 0 -31 -22 -85 -46 -113 l-25 -30 7 40 7 40 -50 -45
c-99 -89 -247 -140 -408 -140 -161 0 -295 47 -397 138 -49 45 -56 44 -37 -4
l10 -28 -22 19 c-30 28 -49 69 -49 105 0 43 -31 37 -45 -8 -11 -39 -19 -40
-42 -6 -65 99 -33 309 63 419 l26 30 -22 -38 c-60 -103 -79 -166 -80 -256 l0
-55 29 45 c41 64 87 103 166 142 68 34 125 81 112 93 -3 4 -27 9 -52 12 -27 3
-44 9 -42 16 7 22 85 68 125 73 23 3 42 9 42 14 0 4 -16 16 -36 25 -20 9 -38
24 -42 32 -9 25 35 52 86 52 42 0 50 -4 92 -48z m-1130 -838 c60 -48 64 -57
35 -84 l-25 -23 -21 26 c-39 51 -65 20 -39 -48 8 -22 6 -32 -12 -57 l-21 -31
-10 24 c-11 30 -4 164 11 202 15 35 28 34 82 -9z m679 0 c16 -31 21 -187 7
-201 -4 -4 -16 2 -26 15 -15 18 -17 33 -13 77 7 62 -6 72 -39 30 l-19 -25 -30
22 -29 22 27 29 c33 35 84 68 98 64 6 -2 16 -17 24 -33z m1197 8 c65 -48 71
-58 44 -87 l-24 -25 -28 27 c-39 37 -55 21 -40 -39 9 -35 8 -47 -4 -65 -8 -13
-19 -23 -24 -23 -25 0 -24 158 1 214 15 33 27 33 75 -2z m683 -4 c17 -48 24
-137 14 -183 l-9 -39 -21 30 c-19 26 -20 34 -10 72 9 33 8 45 -2 54 -10 11
-17 7 -37 -16 l-26 -29 -26 27 -27 28 50 44 c59 53 79 55 94 12z m-1608 -44
c54 -40 59 -52 28 -80 -21 -19 -21 -18 -44 9 -38 43 -49 35 -41 -29 5 -46 3
-61 -10 -75 -10 -11 -21 -19 -26 -19 -4 0 -8 36 -8 80 0 82 18 150 41 150 6 0
33 -16 60 -36z m665 -9 c15 -48 17 -154 5 -174 -8 -12 -13 -11 -30 10 -11 13
-18 31 -14 39 3 8 8 32 11 53 5 45 -12 49 -44 10 l-22 -28 -26 24 -26 25 22
24 c31 33 80 63 98 60 8 -2 20 -21 26 -43z m-1190 -15 c56 -27 141 -100 118
-100 -6 0 -19 8 -28 19 -9 10 -45 31 -79 47 -87 40 -196 40 -279 2 -145 -67
-277 -259 -266 -385 l4 -38 13 30 c17 41 47 72 106 110 28 18 59 42 69 54 19
21 19 21 -5 22 -13 1 -30 1 -38 0 -7 -2 -11 4 -9 11 7 20 68 58 94 58 33 0 30
13 -7 27 -36 14 -34 31 4 53 23 13 29 13 60 -2 47 -23 77 -86 77 -164 l0 -59
35 0 35 0 0 58 c0 66 17 112 51 143 32 29 61 37 93 25 35 -14 33 -37 -6 -58
l-33 -17 30 -6 c36 -8 68 -24 84 -43 9 -12 5 -16 -25 -22 l-36 -6 23 -26 c13
-14 40 -33 60 -44 47 -24 106 -93 120 -140 9 -30 8 -41 -6 -63 -20 -31 -35
-34 -35 -7 0 48 -24 67 -34 28 -10 -42 -98 -114 -162 -134 -89 -27 -250 -24
-328 6 -64 26 -129 78 -153 124 -12 23 -17 27 -24 16 -5 -8 -9 -24 -9 -36 0
-51 -40 -3 -58 69 -23 92 22 198 139 330 97 110 168 147 280 148 53 0 77 -6
125 -30z m1858 14 c31 -11 68 -36 104 -71 l57 -55 -50 35 c-80 56 -129 72
-220 71 -66 0 -90 -5 -138 -28 -141 -68 -271 -263 -255 -383 4 -25 5 -26 13
-8 18 43 57 85 108 114 29 17 62 40 72 51 18 20 18 20 -11 21 -16 1 -33 1 -37
0 -5 -1 -7 4 -5 11 7 20 53 49 89 57 l34 8 -38 16 c-42 18 -44 35 -6 55 72 37
142 -40 143 -158 l1 -65 37 0 37 0 0 61 c-1 119 68 199 140 162 38 -20 36 -37
-6 -55 l-38 -16 30 -7 c37 -8 68 -24 83 -43 10 -12 7 -16 -19 -21 -18 -3 -29
-11 -27 -18 3 -7 37 -35 78 -63 103 -70 147 -158 103 -207 -22 -24 -28 -23
-30 8 -2 45 -19 49 -38 10 -27 -57 -112 -112 -202 -132 -175 -39 -376 22 -427
130 -19 41 -36 39 -36 -5 0 -35 -12 -37 -33 -6 -33 51 -37 136 -10 216 37 111
194 282 290 317 52 18 150 17 207 -2z m-928 -39 c42 -17 128 -84 120 -93 -3
-3 -14 2 -24 11 -27 24 -104 56 -164 67 -126 24 -265 -42 -365 -175 -56 -74
-74 -113 -83 -188 -7 -65 1 -82 20 -37 19 47 87 110 147 137 47 22 60 24 90
15 27 -8 35 -8 40 4 8 21 -25 65 -58 77 -37 14 -43 33 -19 57 25 25 37 25 76
1 42 -26 64 -77 64 -148 l0 -60 36 2 35 2 4 60 c5 108 65 178 130 153 32 -12
33 -45 3 -61 -40 -20 -68 -52 -68 -76 0 -21 3 -23 23 -16 79 27 200 -45 253
-152 23 -49 25 -59 14 -85 -7 -16 -18 -35 -26 -41 -11 -9 -14 -7 -14 9 0 24
-22 42 -28 23 -11 -32 -69 -83 -128 -112 -57 -28 -78 -33 -169 -37 -85 -4
-115 -1 -172 16 -74 23 -143 73 -169 123 -17 34 -34 30 -34 -8 0 -25 -1 -26
-20 -8 -30 27 -53 110 -47 166 7 59 36 117 97 194 89 112 169 176 245 196 42
11 147 3 191 -16z m-576 -125 c0 -11 5 -30 11 -43 8 -19 8 -31 -4 -52 l-14
-28 -17 34 c-14 29 -15 40 -4 76 12 42 28 49 28 13z m947 -17 c9 -30 8 -42 -5
-70 l-16 -34 -12 23 c-9 18 -10 35 -1 71 6 26 13 47 16 47 3 0 11 -17 18 -37z"/>
<path d="M1252 2350 c-50 -21 -58 -115 -12 -140 70 -37 142 30 114 105 -6 15
-54 46 -71 44 -4 0 -18 -4 -31 -9z m56 -37 c5 -17 -26 -29 -40 -15 -6 6 -7 15
-3 22 9 14 37 9 43 -7z"/>
<path d="M1690 2332 c-33 -34 -38 -66 -14 -100 24 -35 59 -45 95 -26 50 25 62
78 27 118 -37 41 -72 43 -108 8z m68 -25 c2 -11 -3 -17 -16 -17 -20 0 -36 23
-24 34 11 12 37 1 40 -17z"/>
<path d="M1438 2211 c-29 -26 -32 -32 -23 -57 6 -17 23 -35 42 -44 59 -27 28
-84 -44 -78 -31 2 -42 9 -62 41 -21 32 -27 36 -39 23 -20 -20 2 -63 48 -94 19
-13 43 -39 53 -58 45 -88 154 -90 194 -3 11 22 31 44 50 53 37 18 67 68 58 97
-9 26 -19 22 -47 -21 -30 -44 -84 -54 -117 -21 -25 25 -27 51 -6 51 21 0 65
45 65 65 0 9 -13 30 -29 46 -41 40 -98 41 -143 0z m110 -4 c9 -11 1 -13 -38
-14 -28 0 -50 3 -50 7 0 21 72 26 88 7z m-48 -227 c0 -6 11 -15 25 -22 30 -14
23 -28 -14 -28 -36 0 -72 37 -51 50 20 13 40 12 40 0z"/>
<path d="M371 1381 c-26 -26 -27 -53 -3 -74 27 -25 59 -21 78 9 16 24 16 27
-3 52 -26 35 -47 38 -72 13z m47 -19 c2 -7 -3 -12 -12 -12 -9 0 -16 7 -16 16
0 17 22 14 28 -4z"/>
<path d="M669 1374 c-22 -23 -23 -27 -8 -52 18 -33 54 -40 80 -16 25 23 24 46
-4 72 -30 28 -38 28 -68 -4z m51 -9 c0 -8 -7 -15 -15 -15 -16 0 -20 12 -8 23
11 12 23 8 23 -8z"/>
<path d="M501 1286 c-18 -21 -9 -67 14 -80 11 -6 22 -12 24 -13 2 -2 -2 -9 -9
-18 -28 -34 -100 -6 -100 39 0 11 -6 16 -17 14 -24 -5 -19 -45 9 -75 28 -29
70 -38 104 -20 23 12 31 12 56 0 61 -31 135 18 129 85 -2 18 -21 15 -28 -5
-17 -50 -76 -71 -103 -38 -7 9 -11 16 -9 18 2 1 13 7 24 13 23 13 32 59 14 80
-6 8 -29 14 -54 14 -25 0 -48 -6 -54 -14z m84 -6 c4 -6 -8 -10 -30 -10 -22 0
-34 4 -30 10 3 6 17 10 30 10 13 0 27 -4 30 -10z"/>
<path d="M2262 1384 c-31 -22 -26 -63 10 -83 24 -14 28 -14 47 3 26 24 27 58
3 79 -23 21 -32 21 -60 1z m43 -13 c7 -12 -12 -24 -25 -16 -11 7 -4 25 10 25
5 0 11 -4 15 -9z"/>
<path d="M2560 1380 c-25 -25 -26 -52 -2 -73 24 -22 45 -21 65 1 23 26 21 58
-5 76 -29 20 -34 20 -58 -4z m45 -9 c7 -12 -12 -24 -25 -16 -11 7 -4 25 10 25
5 0 11 -4 15 -9z"/>
<path d="M2425 1302 c-28 -6 -55 -32 -55 -53 0 -10 13 -28 30 -40 23 -17 27
-26 19 -36 -18 -21 -65 -16 -82 10 -18 27 -32 17 -23 -16 8 -35 58 -54 101
-38 27 9 38 9 53 0 28 -18 83 0 99 31 17 35 -2 53 -25 24 -21 -27 -42 -34 -64
-22 -24 12 -23 35 2 43 28 9 37 51 16 74 -20 22 -42 29 -71 23z m50 -22 c4 -6
-8 -10 -30 -10 -22 0 -34 4 -30 10 3 6 17 10 30 10 13 0 27 -4 30 -10z"/>
<path d="M1302 1298 c-7 -7 -12 -24 -12 -38 0 -52 57 -69 85 -26 19 29 10 63
-12 45 -11 -10 -15 -8 -20 9 -6 24 -23 28 -41 10z"/>
<path d="M1626 1294 c-22 -21 -20 -47 4 -69 26 -24 68 -13 76 20 8 31 -3 50
-21 35 -15 -12 -30 3 -20 20 10 16 -22 11 -39 -6z"/>
<path d="M1447 1242 c-24 -26 -21 -49 8 -68 14 -9 25 -22 25 -30 0 -19 -33
-34 -58 -27 -29 7 -28 -3 2 -22 19 -13 28 -14 50 -4 20 9 32 9 52 1 18 -9 31
-9 45 -2 23 13 26 35 3 26 -20 -8 -54 10 -54 29 0 8 8 19 19 24 27 15 34 41
16 67 -20 30 -83 34 -108 6z m78 -2 c4 -6 -7 -10 -24 -10 -17 0 -31 5 -31 10
0 6 11 10 24 10 14 0 28 -4 31 -10z"/>
<path d="M1792 645 c-38 -31 -42 -70 -12 -102 50 -55 113 -29 118 49 3 48 -6
62 -49 73 -19 5 -34 0 -57 -20z"/>
<path d="M591 633 c-12 -14 -24 -38 -28 -52 -6 -24 -23 -63 -86 -201 -11 -25
-21 -47 -22 -50 -1 -3 -11 -25 -23 -50 -43 -91 -23 -145 51 -138 26 2 36 11
55 45 l23 43 99 0 98 0 12 -30 c16 -38 46 -60 82 -60 27 0 58 31 58 57 0 13
-93 240 -113 278 -6 11 -12 22 -12 25 -4 20 -59 128 -72 142 -11 12 -31 18
-59 18 -34 0 -47 -5 -63 -27z m87 -200 c28 -73 28 -73 -23 -73 -26 0 -45 3
-43 8 3 4 13 26 23 50 21 49 29 52 43 15z"/>
<path d="M991 634 c-20 -25 -21 -39 -21 -234 0 -195 1 -209 21 -234 24 -31 68
-35 92 -8 15 16 17 48 17 245 0 192 -2 228 -16 241 -24 25 -69 20 -93 -10z"/>
<path d="M1345 641 c-50 -23 -119 -94 -140 -143 -19 -47 -19 -155 0 -201 22
-54 72 -105 128 -134 43 -21 61 -24 118 -21 65 3 68 2 79 -22 43 -96 88 -115
129 -55 l23 35 -22 60 -22 59 26 53 c21 42 26 66 26 126 0 91 -15 125 -84 190
-77 73 -175 93 -261 53z m182 -165 c25 -27 33 -45 33 -73 0 -21 -4 -45 -10
-53 -8 -12 -11 -12 -28 3 -25 23 -55 22 -77 -3 -15 -17 -16 -24 -6 -46 12 -26
11 -27 -21 -20 -92 18 -125 139 -55 203 31 28 46 33 92 28 30 -3 48 -13 72
-39z"/>
<path d="M2197 642 c-14 -16 -17 -43 -17 -170 l0 -151 -27 -20 c-29 -24 -55
-21 -89 10 -43 40 -94 11 -94 -53 0 -70 65 -118 160 -118 61 0 96 17 138 64
44 50 52 91 52 261 0 176 -7 195 -69 195 -24 0 -44 -7 -54 -18z"/>
<path d="M2522 637 c-21 -22 -22 -31 -22 -238 0 -246 3 -259 69 -259 69 0 71
7 71 262 0 205 -2 226 -18 241 -27 24 -74 21 -100 -6z"/>
<path d="M1787 312 c-22 -23 -27 -37 -27 -78 0 -60 28 -94 77 -94 46 0 63 26
63 97 0 49 -4 63 -23 81 -31 29 -58 28 -90 -6z"/>
</g>
</svg>
