<svg xmlns="http://www.w3.org/2000/svg" xmlns:xlink="http://www.w3.org/1999/xlink" width="200" height="200" class="icon" p-id="5253" t="1717311677726" version="1.1" viewBox="0 0 1024 1024"><path fill="#6A4DFB" d="M511.482828 35.943434c-263.240404 0-476.573737 213.333333-476.573737 476.573738S248.242424 989.090909 511.482828 989.090909s476.573737-213.333333 476.573738-476.573737-213.333333-476.573737-476.573738-476.573738z m0 741.365657c-29.220202 0-53.010101-23.660606-53.010101-53.010101 0-29.220202 23.660606-53.010101 53.010101-53.010101 29.220202 0 53.010101 23.660606 53.010101 53.010101 0 29.220202-23.789899 53.010101-53.010101 53.010101z m50.553536-212.040404c-1.422222 27.410101-23.660606 49.131313-50.036364 51.975757 1.939394 0.258586 3.620202 1.163636 5.559596 1.163637h-10.989899c1.939394 0 3.620202-0.905051 5.430303-1.163637-26.505051-2.844444-48.226263-24.048485-49.519192-51.975757l-12.153535-264.533333c-1.292929-29.349495 21.591919-53.139394 50.812121-53.139394h24.436364c29.478788 0 52.105051 23.143434 50.424242 53.139394l-13.963636 264.533333z m0 0" p-id="5254"/></svg>